<svg xmlns="http://www.w3.org/2000/svg" version="1.1" xmlns:xlink="http://www.w3.org/1999/xlink" xmlns:svgjs="http://svgjs.dev/svgjs" width="100%" height="100%" viewBox="0 0 1000 600"><rect width="1000" height="600" x="0" y="0" fill="#f2b8b6"/><g><rect width="333.3333333333333" height="333.3333333333333" rx="13.333333333333334" ry="13.333333333333334" y="252.6179762987941" fill="#a2666f" transform="matrix(0.5425447255009797,0,0,0.5425447255009797,0,72.51932571600263)" x="230.39575195312497"/><path d="M412.0851790495284 375.49355623441556L412.0851790495284 494.2846511065325L382.03965622473066 494.2846511065325L382.03965622473066 344.2846545797014L393.5975719915089 344.2846545797014L412.0851790495284 375.49355623441556Z " fill="#f2b8b6" transform="matrix(0.5425447255009797,0,0,0.5425447255009797,0,72.51932571600263)"/><path d="M669.8939359112929 368.00021976277185L669.8939359112929 458.2692745292127L647.0624185464789 458.2692745292127L647.0624185464789 344.28465374578485L655.8452497213274 344.28465374578485L669.8939359112929 368.00021976277185ZM712.9240431333625 361.38907332043516L712.9240431333625 361.38907332043516Q712.9240431333625 363.9451270321525 711.9439022363882 366.2513409073863Q710.9637613394138 368.53833633365974 709.2917562798694 370.22955984216446Q707.6005327713647 371.92078335066924 705.2943188961309 372.90092424764356Q703.0073234698574 373.8810651446179 700.4320513091798 373.8810651446179L700.4320513091798 373.8810651446179Q697.8567791485021 373.8810651446179 695.6082206201492 372.90092424764356Q693.340443642836 371.92078335066924 691.6492201343312 370.22955984216446Q689.9579966258265 368.53833633365974 688.9778557288522 366.2513409073863Q687.9977148318778 363.9451270321525 687.9977148318778 361.38907332043516L687.9977148318778 361.38907332043516Q687.9977148318778 358.8138011597574 688.9778557288522 356.5460241824443Q689.9579966258265 354.2782472051311 691.6492201343312 352.60624214558663Q693.340443642836 350.91501863708186 695.6082206201492 349.93487774010754Q697.8567791485021 348.95473684313316 700.4320513091798 348.95473684313316L700.4320513091798 348.95473684313316Q703.0073234698574 348.95473684313316 705.2943188961309 349.93487774010754Q707.6005327713647 350.91501863708186 709.2917562798694 352.60624214558663Q710.9637613394138 354.2782472051311 711.9439022363882 356.5460241824443Q712.9240431333625 358.8138011597574 712.9240431333625 361.38907332043516ZM711.9246837874279 380.30002709735186L711.9246837874279 458.2692745292127L689.0162926267727 458.2692745292127L689.0162926267727 380.30002709735186L711.9246837874279 380.30002709735186ZM814.0130846644416 419.0828570991993L814.0130846644416 419.0828570991993Q814.0130846644416 427.59662998860387 811.437812503764 435.0341697362327Q808.8817587920466 442.45249103490124 804.0194912050954 447.968185886502Q799.138005169184 453.4646622891424 792.1232712986814 456.65492481654906Q785.0893189792184 459.82596889499547 776.171958661648 459.82596889499547L776.171958661648 459.82596889499547Q769.3494092807482 459.82596889499547 763.6415299395446 457.1546044895164Q757.9336505983412 454.4832400840373 753.8785578677218 448.9483267834763L753.8785578677218 448.9483267834763L753.8785578677218 494.2846478807797L731.0470405029076 494.2846478807797L731.0470405029076 380.2231533015107L739.8298716777562 380.2231533015107L749.9579942798244 397.193043733439Q751.437814849766 392.92654806425656 754.0515239083643 389.4480088024457Q756.6460145180023 385.9694695406348 760.0668984329324 383.5095080737188Q763.4685638989022 381.0495466068028 767.562093527442 379.6850367306228Q771.6556231559819 378.33974530340316 776.171958661648 378.33974530340316L776.171958661648 378.33974530340316Q785.0893189792184 378.33974530340316 792.1232712986814 381.5107893818496Q799.138005169184 384.68183346029593 804.0194912050954 390.19752831189663Q808.8817587920466 395.7132231634974 811.437812503764 403.1315444621659Q814.0130846644416 410.56908420979477 814.0130846644416 419.0828570991993ZM790.8356352183425 419.0828570991993L790.8356352183425 419.0828570991993Q790.8356352183425 416.1039975103557 790.528140034978 412.7599873912668Q790.2206448516135 409.4159772721779 789.4903437911229 406.1104040510095Q788.740824281672 402.80483082984114 787.4147513034125 399.7490974451564Q786.1078967741134 396.71258250943197 784.0707411843235 394.38715018523794Q782.052804043494 392.0617178610439 779.1892551484121 390.6779895359037Q776.3064878043699 389.2942612107634 772.5204533591946 389.2942612107634L772.5204533591946 389.2942612107634Q768.5998897712972 389.2942612107634 765.7363408762153 390.6395526379831Q762.8535735321731 391.9848440652028 760.797199493423 394.31027638939685Q758.740825454673 396.65492716255113 757.4147524764136 399.65300520035504Q756.1078979471145 402.67030168711915 755.3583784376634 405.97587490828755Q754.6280773771728 409.2814481294559 754.3205821938083 412.6638951464654Q754.0130870104438 416.0463421634749 754.0130870104438 419.0828570991993L754.0130870104438 419.0828570991993Q754.0130870104438 421.79265840259893 754.4166744386097 425.05979472584676Q754.8202618667756 428.34614949805484 755.7043105189485 431.6517227192232Q756.5883591711215 434.9572959403916 757.9913059452219 438.07068467195717Q759.4134711682827 441.1840734035227 761.4698452070329 443.6055979725181Q763.5454376947432 446.0463409904739 766.2744574471031 447.48772466249494Q769.0034771994631 448.9483267834763 772.5204533591946 448.9483267834763L772.5204533591946 448.9483267834763Q776.3833616002111 448.9483267834763 779.2084735973724 447.5645984583361Q782.052804043494 446.1808701331958 784.0707411843235 443.8362193600415Q786.1078967741134 441.5107870358475 787.4147513034125 438.4742721001231Q788.740824281672 435.43775716439865 789.4903437911229 432.11296549427Q790.2206448516135 428.8073922731016 790.528140034978 425.4249452560921Q790.8356352183425 422.0617166880429 790.8356352183425 419.0828570991993ZM895.8260218883588 433.34294622772796L895.8260218883588 433.34294622772796Q895.8260218883588 438.4742721001231 894.3462013184171 442.45249103490124Q892.8663807484755 446.44992841863973 890.2911085877978 449.3903511095628Q887.7158364271202 452.3307738004858 884.2180787163489 454.31027404339477Q880.7011025566175 456.308992735264 876.6844467239187 457.5197550197617Q872.6485724422596 458.74973575321974 868.2667660793155 459.2878523241076Q863.8657412674112 459.82596889499547 859.5415902513479 459.82596889499547L859.5415902513479 459.82596889499547Q853.737618665343 459.82596889499547 849.2789385065578 459.0764493855445Q844.8202583477724 458.34614832505383 840.7651656171531 456.6741432655094Q836.7100728865338 455.02135665492517 832.693417053835 452.38842914736665Q828.6767612211363 449.75550163980813 823.737619838344 445.9694671946327L823.737619838344 445.9694671946327L837.0560049678188 435.0918250831136Q838.8817576190456 438.5319274470039 841.8798356568494 441.33782099520494Q844.8779136946533 444.143714543406 848.1258315689408 446.1808701331958Q851.3737494432283 448.19880727402534 854.4102643789528 449.2750404158011Q857.4467793146772 450.3704920065371 859.3494057617451 450.3704920065371L859.3494057617451 450.3704920065371Q860.9061001275278 450.3704920065371 862.8663819214765 450.25518131277545Q864.8266637154252 450.15908906797404 866.8446008562547 449.85159388460954Q868.8817564460445 449.544098701245 870.822819791033 448.9483267834763Q872.7831015849816 448.33333641674733 874.3205775018041 447.2955401728921Q875.8388349696663 446.23852548007665 876.7421020707995 444.6626126653336Q877.664587620893 443.0674814016303 877.664587620893 440.8381413222376L877.664587620893 440.8381413222376Q877.664587620893 438.5319274470039 876.4730437853557 436.8214854895389Q875.2814999498181 435.0918250831136 873.3980919517106 433.8041890027747Q871.514683953603 432.53577137139615 869.0739409356473 431.6517227192232Q866.6331979176916 430.7676740670503 864.1732364507757 430.09502835344045Q861.7132749838596 429.4223826398306 859.4070611086258 428.903484517903Q857.1200656823524 428.4038048449357 855.4288421738477 427.9233436209287L855.4288421738477 427.9233436209287Q852.3154534422822 427.05851341771603 848.8753510783918 426.13602786762254Q845.4352487145015 425.2327607664893 842.052801697492 424.04121693095186Q838.6703546804824 422.8688915443747 835.5954028468375 421.23532338275083Q832.5204510131925 419.62097367008715 830.1950186889985 417.353196692774Q827.8695863648045 415.1046381644211 826.466639590704 412.0296863307761Q825.0829112655637 408.95473449713114 825.0829112655637 404.82276797067067L825.0829112655637 404.82276797067067Q825.0829112655637 397.25069908031986 828.1002077523278 392.15781010584533Q831.0982857901317 387.0649211313708 836.037427172924 383.98996929772585Q840.9765685557162 380.91501746408085 847.2610013657281 379.627381383742Q853.5262157267798 378.33974530340316 860.0220514753548 378.33974530340316L860.0220514753548 378.33974530340316Q864.4807316341402 378.33974530340316 869.4198730169325 379.2430124045364Q874.3397959507644 380.16549795462987 879.0098790481127 381.952813707936Q883.6607436965007 383.7401294612422 887.7158364271202 386.3154016219199Q891.7709291577394 388.87145533363724 894.480730461139 392.1962470037659L894.480730461139 392.1962470037659L881.1623453316643 403.1315444621659Q879.6825247617226 399.07645173154657 877.2802186416875 396.1744659385441Q874.8779125216522 393.27248014554164 872.0720189734512 391.40829059639435Q869.2853438742104 389.5633194962074 866.3449211832874 388.6792708440344Q863.4044984923644 387.7952221918615 860.9061001275278 387.7952221918615L860.9061001275278 387.7952221918615Q858.4653571095721 387.7952221918615 855.4288421738477 388.0066251304246Q852.3923272381232 388.1988096200274 849.7209628326442 389.1597320680415Q847.049598427165 390.1014360670952 845.1854088780178 392.02328096312334Q843.3404377778309 393.94512585915146 843.3404377778309 397.327572876161L843.3404377778309 397.327572876161Q843.3404377778309 399.7490974451564 844.4551078175272 401.47875785158175Q845.5697778572235 403.20841825800704 847.3955305084502 404.4576174404253Q849.2020647107166 405.7068166228436 851.5467154838709 406.55242837709596Q853.8721478080649 407.39804013134835 856.3128908260206 408.0322489470376Q858.7344153950161 408.68567621168717 861.0406292702498 409.1469189867339Q863.3276246965232 409.62738021074097 865.1533773477499 410.16549678162886L865.1533773477499 410.16549678162886Q868.2667660793155 411.04954543380177 871.7453053411265 411.952812534935Q875.2238446029373 412.8560796360682 878.6062916199469 414.0476234716056Q881.9887386369563 415.2391673071431 885.1213458174822 416.8150801218861Q888.253952998008 418.4102113855895 890.6370406690828 420.69720681186294Q893.0009098911975 423.0034206870967 894.403856665298 426.07837252074165Q895.8260218883588 429.15332435438665 895.8260218883588 433.34294622772796ZM939.6056486198794 389.2942612107634L939.6056486198794 458.2692745292127L916.7164759081845 458.2692745292127L916.7164759081845 389.2942612107634L902.5140421265367 389.2942612107634L902.5140421265367 380.2231533015107L916.7164759081845 380.2231533015107L916.7164759081845 351.5107905548506L939.6056486198794 351.5107905548506L939.6056486198794 380.2231533015107L963.2635592899856 380.2231533015107L963.2635592899856 389.2942612107634L939.6056486198794 389.2942612107634ZM997.8567674184917 361.38907332043516L997.8567674184917 361.38907332043516Q997.8567674184917 363.9451270321525 996.8766265215173 366.2513409073863Q995.8964856245431 368.53833633365974 994.2052621160383 370.22955984216446Q992.5140386075336 371.92078335066924 990.2270431812601 372.90092424764356Q987.9208293060263 373.8810651446179 985.3455571453486 373.8810651446179L985.3455571453486 373.8810651446179Q982.7895034336314 373.8810651446179 980.521726456318 372.90092424764356Q978.2539494790049 371.92078335066924 976.5627259705002 370.22955984216446Q974.8907209109557 368.53833633365974 973.9105800139814 366.2513409073863Q972.9304391170069 363.9451270321525 972.9304391170069 361.38907332043516L972.9304391170069 361.38907332043516Q972.9304391170069 358.8138011597574 973.9105800139814 356.5460241824443Q974.8907209109557 354.2782472051311 976.5627259705002 352.60624214558663Q978.2539494790049 350.91501863708186 980.521726456318 349.93487774010754Q982.7895034336314 348.95473684313316 985.3455571453486 348.95473684313316L985.3455571453486 348.95473684313316Q987.9208293060263 348.95473684313316 990.2270431812601 349.93487774010754Q992.5140386075336 350.91501863708186 994.2052621160383 352.60624214558663Q995.8964856245431 354.2782472051311 996.8766265215173 356.5460241824443Q997.8567674184917 358.8138011597574 997.8567674184917 361.38907332043516ZM996.8381896235968 380.30002709735186L996.8381896235968 458.2692745292127L973.9297984629416 458.2692745292127L973.9297984629416 380.30002709735186L996.8381896235968 380.30002709735186ZM1087.9912930422106 399.5569129555536L1087.9912930422106 399.5569129555536L1078.113010276626 403.47747654345096Q1075.7491410545117 396.03993679582214 1070.2142277539506 392.0617178610439Q1064.6793144533895 388.06428047730543 1056.8958426244758 388.06428047730543L1056.8958426244758 388.06428047730543Q1052.7254392000946 388.06428047730543 1049.4390844278864 389.3903534555648Q1046.171948104639 390.69720798486395 1043.6927681887623 393.0034218600977Q1041.2328067218464 395.29041728637117 1039.503146315421 398.3461506710559Q1037.7927043579562 401.38266560678034 1036.69725276722 404.82276797067067Q1035.6210196254442 408.262870334561 1035.1405584014374 411.952812534935Q1034.6793156263907 415.642754735309 1034.6793156263907 419.0828570991993L1034.6793156263907 419.0828570991993Q1034.6793156263907 422.79201774853357 1035.0829030545565 426.57805219370897Q1035.4864904827223 430.3640866388844 1036.466631379697 433.8426259006953Q1037.4467722766713 437.3211651625062 1039.0611219893349 440.3384616492703Q1040.6946901509586 443.3365396870742 1043.1546516178746 445.5658797664668Q1045.6146130847906 447.79521984585944 1049.0354969997206 449.0828559261983Q1052.4371624656906 450.3704920065371 1056.8958426244758 450.3704920065371L1056.8958426244758 450.3704920065371Q1060.489692580048 450.3704920065371 1063.737610454336 449.2750404158011Q1066.9663098796632 448.19880727402534 1069.6761111830629 446.23852548007665Q1072.3859124864625 444.27824368612795 1074.480723423133 441.5876608316886Q1076.5755343598034 438.8778595282889 1077.7862966443013 435.5722863071206L1077.7862966443013 435.5722863071206L1087.7222347567667 439.223791609574Q1085.492894677374 444.5473019715719 1081.802952477 448.4294286615487Q1078.113010276626 452.3307738004858 1073.462145628238 454.84839061428266Q1068.7920625308898 457.3852258770398 1063.468552168892 458.61520661049775Q1058.1258233579338 459.82596889499547 1052.6485654042535 459.82596889499547L1052.6485654042535 459.82596889499547Q1043.788860433564 459.82596889499547 1036.2360099921734 456.8086724082313Q1028.6639411018227 453.81059437042745 1023.1482462502217 448.3717733146679Q1017.6517698475814 442.9329522589083 1014.5383811160158 435.4569756133589Q1011.4249923844502 428.0002174167698 1011.4249923844502 419.0828570991993L1011.4249923844502 419.0828570991993Q1011.4249923844502 410.0886229857877 1014.4999442180953 402.59342789127805Q1017.5748960517402 395.0982327967684 1023.0521540054203 389.6978486389293Q1028.5294119591008 384.27824603213 1036.1014808494515 381.31860489224675Q1043.654331290842 378.33974530340316 1052.6485654042535 378.33974530340316L1052.6485654042535 378.33974530340316Q1058.3180078475366 378.33974530340316 1063.737610454336 379.58894448582146Q1069.1379946121747 380.8381436682397 1073.7696408116026 383.4326342778777Q1078.38206856207 386.0463433364759 1082.0720107624443 390.0245622712541Q1085.7619529628182 394.0219996549926 1087.9912930422106 399.5569129555536ZM1124.3333800261025 432.0553101473891L1124.3333800261025 458.2692745292127L1101.5018626612882 458.2692745292127L1101.5018626612882 351.5107905548506L1124.3333800261025 351.5107905548506L1124.3333800261025 421.58125546403585Q1129.9451671225047 417.5261627334165 1135.3839881782642 412.6638951464654Q1140.8228092340237 407.8016275595142 1145.7619506168162 402.4204618506355Q1150.681873550648 397.05851459071704 1154.9099323219098 391.4467274943149Q1159.1379910931719 385.8349403979128 1162.3090351716182 380.2231533015107L1162.3090351716182 380.2231533015107L1177.8375419315253 380.2231533015107Q1173.1098034872962 388.1988096200274 1166.6331861876815 396.13602904062355Q1160.1373504391063 404.0732484612197 1152.5076262018747 411.3186037192457L1152.5076262018747 411.3186037192457L1178.1258186659297 458.2692745292127L1152.9112136300405 458.2692745292127L1134.7305609136147 425.69400354153606Q1129.6761088370604 429.15332435438665 1124.3333800261025 432.0553101473891L1124.3333800261025 432.0553101473891ZM1256.4986535259563 433.34294622772796L1256.4986535259563 433.34294622772796Q1256.4986535259563 438.4742721001231 1254.9996145070545 442.45249103490124Q1253.5197939371128 446.44992841863973 1250.944521776435 449.3903511095628Q1248.3884680647175 452.3307738004858 1244.8714919049862 454.31027404339477Q1241.3545157452545 456.308992735264 1237.3378599125558 457.5197550197617Q1233.3212040798571 458.74973575321974 1228.9201792679528 459.2878523241076Q1224.5383729050086 459.82596889499547 1220.2142218889453 459.82596889499547L1220.2142218889453 459.82596889499547Q1214.3910318539802 459.82596889499547 1209.932351695195 459.0764493855445Q1205.4736715364097 458.34614832505383 1201.4185788057903 456.6741432655094Q1197.3634860751708 455.02135665492517 1193.3468302424722 452.38842914736665Q1189.3301744097735 449.75550163980813 1184.391033026981 445.9694671946327L1184.391033026981 445.9694671946327L1197.7094181564562 435.0918250831136Q1199.5351708076828 438.5319274470039 1202.5332488454865 441.33782099520494Q1205.5505453322507 444.143714543406 1208.7984632065381 446.1808701331958Q1212.0271626318654 448.19880727402534 1215.0828960165504 449.2750404158011Q1218.1194109522748 450.3704920065371 1220.0028189503823 450.3704920065371L1220.0028189503823 450.3704920065371Q1221.559513316165 450.3704920065371 1223.5197951101136 450.25518131277545Q1225.4800769040626 450.15908906797404 1227.498014044892 449.85159388460954Q1229.535169634682 449.544098701245 1231.4954514286305 448.9483267834763Q1233.455733222579 448.33333641674733 1234.9739906904415 447.2955401728921Q1236.4922481583035 446.23852548007665 1237.3955152594367 444.6626126653336Q1238.31800080953 443.0674814016303 1238.31800080953 440.8381413222376L1238.31800080953 440.8381413222376Q1238.31800080953 438.5319274470039 1237.1264569739928 436.8214854895389Q1235.9541315874158 435.0918250831136 1234.0515051403477 433.8041890027747Q1232.1680971422402 432.53577137139615 1229.7273541242844 431.6517227192232Q1227.3058295552892 430.7676740670503 1224.8458680883732 430.09502835344045Q1222.366688172497 429.4223826398306 1220.0796927462234 428.903484517903Q1217.7734788709895 428.4038048449357 1216.0822553624848 427.9233436209287L1216.0822553624848 427.9233436209287Q1212.9880850798795 427.05851341771603 1209.5287642670291 426.13602786762254Q1206.0886619031385 425.2327607664893 1202.7062148861291 424.04121693095186Q1199.3237678691198 422.8688915443747 1196.2488160354746 421.23532338275083Q1193.19308265079 419.62097367008715 1190.8484318776354 417.353196692774Q1188.5229995534419 415.1046381644211 1187.1392712283014 412.0296863307761Q1185.7555429031613 408.95473449713114 1185.7555429031613 404.82276797067067L1185.7555429031613 404.82276797067067Q1185.7555429031613 397.25069908031986 1188.753620940965 392.15781010584533Q1191.7709174277293 387.0649211313708 1196.6908403615612 383.98996929772585Q1201.6299817443532 380.91501746408085 1207.9144145543655 379.627381383742Q1214.1988473643773 378.33974530340316 1220.675464663992 378.33974530340316L1220.675464663992 378.33974530340316Q1225.1341448227772 378.33974530340316 1230.0732862055697 379.2430124045364Q1235.0124275883618 380.16549795462987 1239.6632922367498 381.952813707936Q1244.3333753340985 383.7401294612422 1248.3884680647175 386.3154016219199Q1252.443560795337 388.87145533363724 1255.1341436497764 392.1962470037659L1255.1341436497764 392.1962470037659L1241.8349769692618 403.1315444621659Q1240.33593795036 399.07645173154657 1237.952850279285 396.1744659385441Q1235.55054415925 393.27248014554164 1232.7446506110487 391.40829059639435Q1229.9387570628478 389.5633194962074 1226.9983343719246 388.6792708440344Q1224.0579116810018 387.7952221918615 1221.559513316165 387.7952221918615L1221.559513316165 387.7952221918615Q1219.1379887471699 387.7952221918615 1216.0822553624848 388.0066251304246Q1213.0457404267604 388.1988096200274 1210.3743760212815 389.1597320680415Q1207.703011615802 390.1014360670952 1205.8580405156154 392.02328096312334Q1203.993850966468 393.94512585915146 1203.993850966468 397.327572876161L1203.993850966468 397.327572876161Q1203.993850966468 399.7490974451564 1205.1085210061642 401.47875785158175Q1206.2231910458609 403.20841825800704 1208.0489436970875 404.4576174404253Q1209.874696348314 405.7068166228436 1212.200128672508 406.55242837709596Q1214.525560996702 407.39804013134835 1216.966304014658 408.0322489470376Q1219.4070470326137 408.68567621168717 1221.694042458887 409.1469189867339Q1224.0002563341209 409.62738021074097 1225.8260089853475 410.16549678162886L1225.8260089853475 410.16549678162886Q1228.9201792679528 411.04954543380177 1232.3987185297638 411.952812534935Q1235.8772577915743 412.8560796360682 1239.259704808584 414.0476234716056Q1242.6421518255934 415.2391673071431 1245.7747590061194 416.8150801218861Q1248.9265846356056 418.4102113855895 1251.29045385772 420.69720681186294Q1253.6543230798347 423.0034206870967 1255.0764883028955 426.07837252074165Q1256.4986535259563 429.15332435438665 1256.4986535259563 433.34294622772796ZM1293.0521434484112 448.1411519271445L1293.0521434484112 448.1411519271445Q1293.0521434484112 450.69720563886193 1292.0912210003971 452.96498261617506Q1291.1495170013436 455.23275959348825 1289.4582934928385 456.88554620407245Q1287.7670699843338 458.5383328146566 1285.5377299049414 459.518473711631Q1283.3083898255486 460.4986146086053 1280.752336113831 460.4986146086053L1280.752336113831 460.4986146086053Q1278.1770639531537 460.4986146086053 1275.9477238737609 459.518473711631Q1273.7183837943685 458.5383328146566 1272.0271602858634 456.88554620407245Q1270.3359367773587 455.23275959348825 1269.3942327783052 452.96498261617506Q1268.4525287792512 450.69720563886193 1268.4525287792512 448.1411519271445L1268.4525287792512 448.1411519271445Q1268.4525287792512 445.642753562308 1269.3942327783052 443.3749765849947Q1270.3359367773587 441.1071996076816 1272.0271602858634 439.4544129970974Q1273.7183837943685 437.8016263865132 1275.9477238737609 436.8214854895389Q1278.1770639531537 435.84134459256455 1280.752336113831 435.84134459256455L1280.752336113831 435.84134459256455Q1283.3083898255486 435.84134459256455 1285.5377299049414 436.8214854895389Q1287.7670699843338 437.8016263865132 1289.4582934928385 439.4544129970974Q1291.1495170013436 441.1071996076816 1292.0912210003971 443.3749765849947Q1293.0521434484112 445.642753562308 1293.0521434484112 448.1411519271445ZM1381.687630053228 399.5569129555536L1381.687630053228 399.5569129555536L1371.828565736604 403.47747654345096Q1369.4646965144893 396.03993679582214 1363.910564764968 392.0617178610439Q1358.375651464407 388.06428047730543 1350.6113980844534 388.06428047730543L1350.6113980844534 388.06428047730543Q1346.421776211112 388.06428047730543 1343.135421438904 389.3903534555648Q1339.8682851156564 390.69720798486395 1337.4083236487404 393.0034218600977Q1334.9291437328638 395.29041728637117 1333.218701775399 398.3461506710559Q1331.4890413689736 401.38266560678034 1330.4128082271977 404.82276797067067Q1329.3173566364617 408.262870334561 1328.856113861415 411.952812534935Q1328.3756526374082 415.642754735309 1328.3756526374082 419.0828570991993L1328.3756526374082 419.0828570991993Q1328.3756526374082 422.79201774853357 1328.779240065574 426.57805219370897Q1329.1828274937398 430.3640866388844 1330.162968390714 433.8426259006953Q1331.1431092876887 437.3211651625062 1332.7766774493125 440.3384616492703Q1334.3910271619761 443.3365396870742 1336.850988628892 445.5658797664668Q1339.3301685447682 447.79521984585944 1342.731834010738 449.0828559261983Q1346.1527179256682 450.3704920065371 1350.6113980844534 450.3704920065371L1350.6113980844534 450.3704920065371Q1354.1860295910656 450.3704920065371 1357.4339474653534 449.2750404158011Q1360.6818653396408 448.19880727402534 1363.3724481940803 446.23852548007665Q1366.0822494974796 444.27824368612795 1368.1770604341505 441.5876608316886Q1370.271871370821 438.8778595282889 1371.4826336553188 435.5722863071206L1371.4826336553188 435.5722863071206L1381.4185717677842 439.223791609574Q1379.1892316883918 444.5473019715719 1375.4992894880174 448.4294286615487Q1371.828565736604 452.3307738004858 1367.1584826392555 454.84839061428266Q1362.5076179908674 457.3852258770398 1357.164889179909 458.61520661049775Q1351.8221603689512 459.82596889499547 1346.344902415271 459.82596889499547L1346.344902415271 459.82596889499547Q1337.5044158935416 459.82596889499547 1329.932347003191 456.8086724082313Q1322.3602781128402 453.81059437042745 1316.8638017101998 448.3717733146679Q1311.3481068585988 442.9329522589083 1308.2539365759935 435.4569756133589Q1305.140547844428 428.0002174167698 1305.140547844428 419.0828570991993L1305.140547844428 419.0828570991993Q1305.140547844428 410.0886229857877 1308.2154996780732 402.59342789127805Q1311.290451511718 395.0982327967684 1316.7677094653982 389.6978486389293Q1322.2257489701178 384.27824603213 1329.797817860469 381.31860489224675Q1337.3698867508197 378.33974530340316 1346.344902415271 378.33974530340316L1346.344902415271 378.33974530340316Q1352.0335633075142 378.33974530340316 1357.4339474653534 379.58894448582146Q1362.8343316231922 380.8381436682397 1367.46597782262 383.4326342778777Q1372.097624022048 386.0463433364759 1375.7683477734618 390.0245622712541Q1379.4582899738357 394.0219996549926 1381.687630053228 399.5569129555536ZM1477.6261272629522 419.0828570991993L1477.6261272629522 419.0828570991993Q1477.6261272629522 425.15588697064817 1476.0117775502886 430.49861578160636Q1474.3974278376245 435.84134459256455 1471.5146604935826 440.3576800982306Q1468.6511115985004 444.89323405285694 1464.5960188678814 448.50630245738984Q1460.540926137262 452.11937086192273 1455.697876999271 454.61776922675926Q1450.8740463102404 457.1161675915958 1445.3775699076 458.4806774677758Q1439.8618750559995 459.82596889499547 1434.0579034699945 459.82596889499547L1434.0579034699945 459.82596889499547Q1428.2347134350293 459.82596889499547 1422.7766739303092 458.4806774677758Q1417.2994159766295 457.1161675915958 1412.4563668386386 454.61776922675926Q1407.6325361496079 452.11937086192273 1403.5774434189884 448.50630245738984Q1399.522350688369 444.89323405285694 1396.6588017932872 440.3576800982306Q1393.776034449245 435.84134459256455 1392.1616847365813 430.4601788836858Q1390.5473350239176 425.09823162376733 1390.5473350239176 419.0828570991993L1390.5473350239176 419.0828570991993Q1390.5473350239176 413.0674825746313 1392.1616847365813 407.70553531471285Q1393.776034449245 402.3243696058341 1396.6588017932872 397.808034100168Q1399.522350688369 393.27248014554164 1403.5774434189884 389.6594117410088Q1407.6325361496079 386.0463433364759 1412.4563668386386 383.54794497163937Q1417.2994159766295 381.0495466068028 1422.7766739303092 379.6850367306228Q1428.2347134350293 378.33974530340316 1434.0579034699945 378.33974530340316L1434.0579034699945 378.33974530340316Q1439.8618750559995 378.33974530340316 1445.3775699076 379.6850367306228Q1450.8740463102404 381.0495466068028 1455.697876999271 383.54794497163937Q1460.540926137262 386.0463433364759 1464.5960188678814 389.6594117410088Q1468.6511115985004 393.27248014554164 1471.5146604935826 397.808034100168Q1474.3974278376245 402.3243696058341 1476.0117775502886 407.70553531471285Q1477.6261272629522 413.0674825746313 1477.6261272629522 419.0828570991993ZM1454.391022469972 419.0828570991993L1454.391022469972 419.0828570991993Q1454.391022469972 415.8349392249118 1454.0258719397266 412.2218708203789Q1453.641502960521 408.608802415846 1452.7766727573085 405.13026315403516Q1451.8926241051354 401.65172389222425 1450.3743666372734 398.4422429158573Q1448.856109169411 395.23276193949033 1446.6267690900186 392.8304558194552Q1444.3974290106257 390.42814969942003 1441.2840402790603 388.9867660273989Q1438.1706515474948 387.52616390641754 1434.0579034699945 387.52616390641754L1434.0579034699945 387.52616390641754Q1430.137339882097 387.52616390641754 1427.1008249463725 389.00598447635923Q1424.045091561688 390.5050234952612 1421.796533033335 392.96498496217714Q1419.5287560560218 395.42494642909315 1418.0104985881599 398.67286430338066Q1416.4922411202974 401.9207821776682 1415.5313186722833 405.3993214394791Q1414.5896146732293 408.87786070129 1414.1860272450635 412.433273758942Q1413.7824398168977 415.96946836763374 1413.7824398168977 419.0828570991993L1413.7824398168977 419.0828570991993Q1413.7824398168977 422.1962458307649 1414.1860272450635 425.73244043945664Q1414.5896146732293 429.28785349710864 1415.5313186722833 432.8048296568401Q1416.4922411202974 436.30258736761124 1418.0104985881599 439.5120683439782Q1419.5287560560218 442.7215493203452 1421.796533033335 445.2007292362215Q1424.045091561688 447.6606907031375 1427.1008249463725 449.1405112730791Q1430.137339882097 450.63955029198104 1434.0579034699945 450.63955029198104L1434.0579034699945 450.63955029198104Q1438.112996200614 450.63955029198104 1441.2071664832192 449.17894817099966Q1444.3205552147847 447.7375644989786 1446.5883321920978 445.29682148102285Q1448.856109169411 442.85607846306715 1450.3359297393527 439.6850343846208Q1451.8157503092943 436.5139903061744 1452.7382358593877 432.9970141464429Q1453.641502960521 429.48003798671147 1454.0258719397266 425.90540648009915Q1454.391022469972 422.3307749734868 1454.391022469972 419.0828570991993ZM1612.7702603516495 412.72155049334623L1612.7702603516495 412.72155049334623Q1612.7702603516495 420.77408060770404 1610.8676339045815 429.48003798671147Q1608.984225906474 438.2052138146791 1605.563341991544 446.4883653165603Q1602.161676525574 454.75229836948125 1597.3570642855038 462.1129643212689Q1592.5524520454337 469.4928487220169 1586.6908251125478 474.89323287985593L1586.6908251125478 474.89323287985593L1578.1001784273021 470.2231497825076Q1580.0604602212507 466.70617362277613 1581.6748099339143 462.32436725983206Q1583.3083780955385 457.9233424479276 1584.6536695227578 453.0610748609765Q1585.9989609499776 448.19880727402534 1587.0175387448726 443.0674814016303Q1588.0361165397676 437.9361555292352 1588.747199151298 432.8240481058004Q1589.4582817628284 427.73115913132585 1589.7849953951531 422.92654689125555Q1590.130927476438 418.1411531001456 1590.130927476438 413.9515312268042L1590.130927476438 413.9515312268042Q1590.130927476438 411.58766200468966 1589.9963983337161 408.82020535440915Q1589.8618691909942 406.0335302551684 1589.4198448649076 403.2660736048879Q1588.977820538821 400.49861695460737 1588.0937718866485 397.96178169185026Q1587.2289416834356 395.42494642909315 1585.7106842155736 393.4454461861842Q1584.173208298751 391.4467274943149 1581.924649770398 390.2744021077378Q1579.6568727930849 389.0828582722003 1576.4858287146385 389.0828582722003L1576.4858287146385 389.0828582722003Q1573.372439983073 389.0828582722003 1571.181536801601 390.7356448827845Q1568.9714151711687 392.3884314933687 1567.4339392543461 395.02135900092725Q1565.8772448885634 397.65428650848577 1564.9547593384696 400.97907817861443Q1564.0514922373368 404.2846513997828 1563.5710310133295 407.6286615188717Q1563.1097882382828 410.9726716379607 1562.9368221976401 414.0091865736851Q1562.763856156998 417.0457015094095 1562.763856156998 419.14051244608015L1562.763856156998 419.14051244608015L1562.763856156998 458.2692745292127L1539.9899941390645 458.2692745292127L1539.9899941390645 421.9271875453209Q1539.9899941390645 419.5633183232064 1540.0668679349055 416.21930820411745Q1540.1245232817864 412.8560796360682 1539.8939018942629 409.22379278257506Q1539.6632805067397 405.57228748012164 1539.0098532420902 401.95921907558875Q1538.3756444264009 398.3461506710559 1536.9919161012608 395.5018202249343Q1535.6081877761203 392.65748977881265 1533.2443185540055 390.8701740255065Q1530.8804493318912 389.0828582722003 1527.2865993763185 389.0828582722003L1527.2865993763185 389.0828582722003Q1524.250084440594 389.0828582722003 1522.1937104018439 390.7740817807051Q1520.1373363630942 392.4653052892098 1518.7536080379537 395.1366696946889Q1517.350661263853 397.808034100168 1516.5819233054417 401.15204421925694Q1515.8131853470309 404.49605433834586 1515.4288163678252 407.84006445743483Q1515.0636658375797 411.18407457652376 1514.9867920417387 414.1821526143276Q1514.9291366948578 417.18023065213146 1514.9291366948578 419.14051244608015L1514.9291366948578 419.14051244608015L1514.9291366948578 458.2692745292127L1492.0207455342024 458.2692745292127L1492.0207455342024 380.2231533015107L1500.803576709051 380.2231533015107L1509.1828204557337 398.40380601793674Q1512.0271509018553 388.9483291294784 1518.138617671225 383.6440372164408Q1524.250084440594 378.33974530340316 1534.3782070426623 378.33974530340316L1534.3782070426623 378.33974530340316Q1543.5069702987962 378.33974530340316 1549.5223448233642 382.12577974857857Q1555.5377193479321 385.91181419375397 1558.9778217118223 394.4255870831585L1558.9778217118223 394.4255870831585Q1560.9381035057709 390.69720798486395 1563.3404096258064 387.7375668449807Q1565.7427157458415 384.7587072561371 1568.6831384367642 382.6638963194664Q1571.6235611276875 380.5690853827958 1575.1981926342996 379.45441534309947Q1578.7728241409118 378.33974530340316 1583.096975156975 378.33974530340316L1583.096975156975 378.33974530340316Q1591.072631475492 378.33974530340316 1596.7228554698145 380.9342359130411Q1602.3538610151768 383.54794497163937 1605.9284925217894 388.1411542731466Q1609.5223424773617 392.7343635746538 1611.1366921900258 399.0572332825863Q1612.7702603516495 405.3608845415585 1612.7702603516495 412.72155049334623Z " fill="#f45866" transform="matrix(0.5425447255009797,0,0,0.5425447255009797,0,72.51932571600263)"/></g></svg>